<svg width="24" height="24" viewBox="0 0 24 24" fill="none" xmlns="http://www.w3.org/2000/svg">
<path d="M8.5 1H3.5C2.11929 1 1 2.11929 1 3.5V5.5C1 6.88071 2.11929 8 3.5 8H8.5C9.88071 8 11 6.88071 11 5.5V3.5C11 2.11929 9.88071 1 8.5 1Z" fill="#F66F4D"/>
<path d="M20.4999 16H15.4999C14.1192 16 12.9999 17.1193 12.9999 18.5V20.5C12.9999 21.8807 14.1192 23 15.4999 23H20.4999C21.8806 23 22.9999 21.8807 22.9999 20.5V18.5C22.9999 17.1193 21.8806 16 20.4999 16Z" fill="#F66F4D"/>
<path d="M8.5 9H3.5C2.11929 9 1 10.1193 1 11.5V20.5C1 21.8807 2.11929 23 3.5 23H8.5C9.88071 23 11 21.8807 11 20.5V11.5C11 10.1193 9.88071 9 8.5 9Z" fill="#F66F4D"/>
<path d="M20.4999 1H15.4999C14.1192 1 12.9999 2.11929 12.9999 3.5V12.5C12.9999 13.8807 14.1192 15 15.4999 15H20.4999C21.8806 15 22.9999 13.8807 22.9999 12.5V3.5C22.9999 2.11929 21.8806 1 20.4999 1Z" fill="#F66F4D"/>
</svg>
